<svg width="18" height="23" viewBox="0 0 18 23" fill="none" xmlns="http://www.w3.org/2000/svg">
<g id="Group 2">
<path id="Vector" d="M13.3359 0.00012207C13.3359 0.00012207 11.7 0.0397447 10.2 1.53974C8.70001 3.03974 8.953 5.06049 8.953 5.06049C8.953 5.06049 10.4379 5.33201 12.0226 3.74729C13.6074 2.16256 13.3359 0.00012207 13.3359 0.00012207Z" fill="#090A0A"/>
<path id="Vector_2" d="M9.12452 6.3396C8.01885 6.33204 7.33965 5.37734 5.4566 5.37734C3.76225 5.37734 2.06373 6.47051 1.34151 7.52828C0.622641 8.58111 0 9.73582 0 12.0792C0 14.4226 1.12832 18.4528 3.90285 21.1811C4.378 21.6483 5.00698 21.9995 5.72454 22.0213C7.0151 22.0604 7.80756 21.0943 9.43774 21.0943C11.0679 21.0943 11.5585 22.0213 13.0302 22.0213C13.6994 22.0213 14.4626 21.7165 15.2038 20.9283C16.1547 19.917 17.3347 17.9909 17.9358 16.1434C17.9358 16.1434 14.9258 14.9809 14.9622 11.6301C14.9924 8.8528 17.3509 7.48675 17.3509 7.48675C17.3509 7.48675 15.9735 5.29053 13.0453 5.29053C11.0226 5.30565 10.1169 6.34639 9.12452 6.3396Z" fill="#090A0A"/>
</g>
</svg>
